# File created by Blade
# Date/Time:  Wed Jan 21 16:20:01 2015
# Frame Rate: 120.000 fps
#------------------------------------------------------
:FULLY-SPECIFIED
:DEGREES
907
root 16.940365 36.275999 -19.616094 -182.354343 -10.465032 -171.055411
Spine -1.298119 0.395842 -5.857341
Head 17.724182 -16.722651 6.624588
LeftShoulder -7.251474 -21.181403 -1.800667
LeftArm -11.095649 29.343254 -76.635607
LeftForeArm 2.584169 0.000000 15.072863
LeftHand 0.139837 -0.000000 -1.530266
LeftHandThumb1 -26.253704 0.000000 33.147579
RightShoulder -9.986142 -12.264884 14.675372
RightArm 34.582060 -25.698637 53.159683
RightForeArm -32.832526 -0.000000 42.322225
RightHand -1.595485 -0.000000 6.904279
RightHandThumb1 -24.326973 -0.000000 -32.862282
LeftUpLeg 5.878813 5.092591 5.566168
LeftLeg -9.840844 -0.000000 0.000000
LeftFoot 0.103433 21.793251 7.438114
LeftToeBase -147.127970 -0.000000 0.000000
RightUpLeg -0.549136 -17.798407 2.502953
RightLeg 8.401309 -0.000000 -0.000000
RightFoot -13.945231 -22.145045 21.169010
RightToeBase 7.780904 -0.000000 -0.000000
908
root 16.993632 36.244726 -19.641437 -182.514895 -10.185333 -171.479373
Spine -1.170889 0.441680 -5.970401
Head 17.546325 -16.364784 6.202689
LeftShoulder -7.164563 -21.233239 -2.011135
LeftArm -10.527579 29.914006 -76.581126
LeftForeArm 2.796208 0.000000 14.919886
LeftHand 0.147321 0.000000 -2.007153
LeftHandThumb1 -26.253704 0.000000 33.147579
RightShoulder -9.833343 -12.295532 14.646706
RightArm 34.774964 -26.342748 52.710811
RightForeArm -32.764160 -0.000000 40.478998
RightHand -1.220803 -0.000000 7.277782
RightHandThumb1 -24.326973 -0.000000 -32.862282
LeftUpLeg 6.111003 5.086674 5.275052
LeftLeg -9.634102 -0.000000 0.000000
LeftFoot 0.018416 21.997201 7.552096
LeftToeBase -146.812265 -0.000000 0.000000
RightUpLeg -0.171847 -17.765571 2.341373
RightLeg 8.322024 -0.000000 -0.000000
RightFoot -14.565208 -22.277678 21.354887
RightToeBase 8.070838 -0.000000 -0.000000
909
root 17.044562 36.211603 -19.659998 -182.589421 -9.831716 -171.988890
Spine -1.129255 0.529449 -6.184497
Head 17.368479 -15.973998 5.864924
LeftShoulder -7.148376 -21.348292 -2.144657
LeftArm -10.005588 30.418111 -76.559009
LeftForeArm 3.124729 -0.000000 14.677421
LeftHand 0.114810 -0.000000 -2.069923
LeftHandThumb1 -26.253704 0.000000 33.147579
RightShoulder -9.604924 -12.301706 14.610947
RightArm 34.804999 -26.839376 52.481345
RightForeArm -32.852636 -0.000000 38.629179
RightHand -0.868314 -0.000000 7.689673
RightHandThumb1 -24.326973 -0.000000 -32.862282
LeftUpLeg 6.264778 5.260440 4.892995
LeftLeg -9.418777 -0.000000 0.000000
LeftFoot -0.091758 22.131918 7.570102
LeftToeBase -146.673254 -0.000000 0.000000
RightUpLeg 0.115399 -17.544280 2.100777
RightLeg 8.225101 -0.000000 -0.000000
RightFoot -15.155132 -22.560248 21.353676
RightToeBase 8.487077 -0.000000 -0.000000
910
root 17.100235 36.178910 -19.680383 -182.610146 -9.484803 -172.479642
Spine -1.175216 0.631656 -6.393805
Head 17.200147 -15.572093 5.545282
LeftShoulder -7.078502 -21.368105 -2.259569
LeftArm -9.496535 30.843944 -76.526390
LeftForeArm 3.409573 -0.000000 14.508402
LeftHand 0.048631 0.000000 -2.188443
LeftHandThumb1 -26.253704 0.000000 33.147579
RightShoulder -9.436725 -12.316236 14.588238
RightArm 34.819997 -27.261160 52.332613
RightForeArm -33.009379 0.000000 36.733836
RightHand -0.527956 -0.000000 8.125502
RightHandThumb1 -24.326973 -0.000000 -32.862282
LeftUpLeg 6.355324 5.315067 4.522398
LeftLeg -9.191674 -0.000000 0.000000
LeftFoot -0.196240 22.365984 7.608562
LeftToeBase -146.457076 -0.000000 0.000000
RightUpLeg 0.366681 -17.321167 1.891195
RightLeg 8.051885 -0.000000 -0.000000
RightFoot -15.654813 -22.916753 21.328825
RightToeBase 8.840537 -0.000000 -0.000000
911
root 17.162578 36.146504 -19.695122 -182.579863 -8.966879 -172.969188
Spine -1.276460 0.881471 -6.601487
Head 16.999354 -15.210701 5.238466
LeftShoulder -7.056534 -21.374328 -2.365253
LeftArm -8.954113 31.272871 -76.449483
LeftForeArm 3.655354 -0.000000 14.307080
LeftHand 0.030402 -0.000000 -2.118898
LeftHandThumb1 -26.253704 0.000000 33.147579
RightShoulder -9.249460 -12.250629 14.503915
RightArm 34.678139 -27.759083 52.261080
RightForeArm -32.822408 -0.000000 34.975418
RightHand -0.352990 -0.000000 8.332623
RightHandThumb1 -24.326973 -0.000000 -32.862282
LeftUpLeg 6.386373 5.593891 4.171536
LeftLeg -8.920609 -0.000000 0.000000
LeftFoot -0.327799 22.569676 7.649506
LeftToeBase -146.239284 -0.000000 0.000000
RightUpLeg 0.505216 -16.867880 1.689833
RightLeg 7.944924 -0.000000 -0.000000
RightFoot -16.074491 -23.185171 21.425645
RightToeBase 9.114230 -0.000000 -0.000000
912
root 17.218527 36.114316 -19.718943 -182.577277 -8.497873 -173.500530
Spine -1.374361 1.111255 -6.847582
Head 16.842689 -14.876167 4.926820
LeftShoulder -6.975689 -21.489337 -2.451453
LeftArm -8.669290 31.814097 -76.450448
LeftForeArm 3.746556 0.000000 14.209645
LeftHand -0.034510 -0.000000 -2.245851
LeftHandThumb1 -26.253704 0.000000 33.147579
RightShoulder -9.085741 -12.323138 14.496607
RightArm 34.479891 -27.718636 52.548620
RightForeArm -33.104203 -0.000000 32.988381
RightHand 0.264150 -0.000000 8.681239
RightHandThumb1 -24.326973 -0.000000 -32.862282
LeftUpLeg 6.470564 5.758244 3.765211
LeftLeg -8.687745 -0.000000 0.000000
LeftFoot -0.425499 22.832971 7.601281
LeftToeBase -146.084481 -0.000000 0.000000
RightUpLeg 0.708962 -16.608096 1.404454
RightLeg 7.777753 -0.000000 -0.000000
RightFoot -16.340716 -23.361595 21.310209
RightToeBase 9.279111 -0.000000 -0.000000
913
root 17.282655 36.080828 -19.742061 -182.515731 -8.067567 -173.975779
Spine -1.558700 1.313297 -7.036472
Head 16.685953 -14.498343 4.638182
LeftShoulder -6.892537 -21.471844 -2.551426
LeftArm -8.271691 32.168544 -76.348644
LeftForeArm 3.954921 -0.000000 14.113752
LeftHand 0.029873 -0.000000 -2.144445
LeftHandThumb1 -26.253704 0.000000 33.147579
RightShoulder -8.958978 -12.363850 14.427163
RightArm 34.171340 -27.723906 52.903287
RightForeArm -33.197907 -0.000000 31.248675
RightHand 0.374642 -0.000000 8.962121
RightHandThumb1 -24.326973 -0.000000 -32.862282
LeftUpLeg 6.405807 5.985118 3.417833
LeftLeg -8.335126 -0.000000 0.000000
LeftFoot -0.601674 23.030581 7.652970
LeftToeBase -145.878225 -0.000000 0.000000
RightUpLeg 0.842942 -16.306261 1.193810
RightLeg 7.598281 -0.000000 -0.000000
RightFoot -16.544344 -23.551466 21.186997
RightToeBase 9.757699 -0.000000 -0.000000
914
root 17.346568 36.047370 -19.758002 -182.363743 -7.705589 -174.426548
Spine -1.837259 1.391730 -7.167794
Head 16.565818 -14.085472 4.278536
LeftShoulder -6.875499 -21.432644 -2.685682
LeftArm -7.896697 32.458133 -76.178391
LeftForeArm 4.219219 -0.000000 14.077271
LeftHand 0.040446 -0.000000 -2.391834
LeftHandThumb1 -26.253704 0.000000 33.147579
RightShoulder -8.787033 -12.411561 14.323634
RightArm 33.756879 -27.553955 53.403414
RightForeArm -33.324462 -0.000000 29.497890
RightHand 0.498457 -0.000000 9.262764
RightHandThumb1 -24.326973 -0.000000 -32.862282
LeftUpLeg 6.159533 6.094896 3.080758
LeftLeg -7.858207 -0.000000 0.000000
LeftFoot -0.797794 23.170270 7.786419
LeftToeBase -145.481178 -0.000000 0.000000
RightUpLeg 0.905667 -16.038403 1.003078
RightLeg 7.344079 -0.000000 -0.000000
RightFoot -16.639819 -23.563270 20.969927
RightToeBase 10.003930 -0.000000 -0.000000
915
root 17.412316 36.015083 -19.776173 -182.225051 -7.265030 -174.908487
Spine -2.107277 1.566415 -7.357795
Head 16.385206 -13.723818 3.995194
LeftShoulder -6.837662 -21.381346 -2.823680
LeftArm -7.531236 32.610696 -75.933089
LeftForeArm 4.542432 -0.000000 14.069728
LeftHand 0.146232 0.000000 -2.290509
LeftHandThumb1 -26.253704 0.000000 33.147579
RightShoulder -8.671146 -12.488732 14.238599
RightArm 33.419777 -27.352324 53.883629
RightForeArm -33.335082 -0.000000 27.642033
RightHand 0.478009 -0.000000 9.379180
RightHandThumb1 -24.326973 -0.000000 -32.862282
LeftUpLeg 5.978533 6.220748 2.711687
LeftLeg -7.457067 -0.000000 0.000000
LeftFoot -0.949200 23.437621 7.783473
LeftToeBase -145.182029 -0.000000 0.000000
RightUpLeg 0.962381 -15.710961 0.749213
RightLeg 7.074136 -0.000000 -0.000000
RightFoot -17.089940 -23.663792 20.592674
RightToeBase 11.358255 -0.000000 -0.000000
916
root 17.478993 35.984360 -19.802917 -182.147254 -6.909631 -175.344228
Spine -2.310050 1.674714 -7.473569
Head 16.227165 -13.349378 3.655427
LeftShoulder -6.809265 -21.319398 -3.066873
LeftArm -7.168390 32.842658 -75.544384
LeftForeArm 4.764864 0.000000 14.120745
LeftHand 0.193546 -0.000000 -2.518114
LeftHandThumb1 -26.253704 0.000000 33.147579
RightShoulder -8.545231 -12.489478 14.161875
RightArm 32.896348 -27.018196 54.438299
RightForeArm -33.291437 -0.000000 26.005166
RightHand 0.408643 -0.000000 9.597495
RightHandThumb1 -24.326973 -0.000000 -32.862282
LeftUpLeg 5.850973 6.220933 2.391125
LeftLeg -7.073606 -0.000000 0.000000
LeftFoot -1.090360 23.781290 7.871813
LeftToeBase -144.980106 -0.000000 0.000000
RightUpLeg 1.105700 -15.591651 0.500357
RightLeg 6.697318 -0.000000 -0.000000
RightFoot -17.632192 -23.904439 20.203846
RightToeBase 13.491453 -0.000000 -0.000000
917
root 17.547314 35.955578 -19.833262 -182.074286 -6.548429 -175.771266
Spine -2.520143 1.759755 -7.575365
Head 16.088382 -12.953764 3.301569
LeftShoulder -6.822241 -21.212807 -3.332330
LeftArm -6.788702 33.021023 -75.055792
LeftForeArm 4.982874 -0.000000 14.198484
LeftHand 0.195123 -0.000000 -2.725026
LeftHandThumb1 -26.253704 0.000000 33.147579
RightShoulder -8.445764 -12.570430 14.091395
RightArm 32.531121 -26.688612 54.892523
RightForeArm -33.215448 -0.000000 24.228616
RightHand 0.336735 -0.000000 9.451442
RightHandThumb1 -24.326973 -0.000000 -32.862282
LeftUpLeg 5.732635 6.223560 2.074782
LeftLeg -6.691065 -0.000000 0.000000
LeftFoot -1.186774 24.117628 7.825392
LeftToeBase -144.604127 -0.000000 0.000000
RightUpLeg 1.250771 -15.545575 0.241313
RightLeg 6.262776 -0.000000 -0.000000
RightFoot -18.054925 -24.261970 19.961122
RightToeBase 15.427932 -0.000000 -0.000000
918
root 17.616519 35.927108 -19.866676 -182.022895 -6.196635 -176.166722
Spine -2.706006 1.873411 -7.632229
Head 15.903521 -12.566238 2.975160
LeftShoulder -6.845410 -21.150659 -3.621283
LeftArm -6.409363 33.136901 -74.532855
LeftForeArm 5.333115 -0.000000 14.143326
LeftHand 0.439007 -0.000000 -3.193662
LeftHandThumb1 -26.253704 0.000000 33.147579
RightShoulder -8.378377 -12.647552 13.996048
RightArm 32.073681 -26.235698 55.397142
RightForeArm -32.973191 -0.000000 22.646551
RightHand 0.228075 -0.000000 9.374141
RightHandThumb1 -24.326973 -0.000000 -32.862282
LeftUpLeg 5.621821 6.298726 1.795738
LeftLeg -6.296699 -0.000000 0.000000
LeftFoot -1.310669 24.412144 7.865981
LeftToeBase -144.308051 -0.000000 0.000000
RightUpLeg 1.420375 -15.657781 -0.025810
RightLeg 5.754912 -0.000000 -0.000000
RightFoot -18.324027 -24.535550 19.968259
RightToeBase 17.253711 -0.000000 -0.000000
